P1
# Created by GIMP version 2.10.36 PNM plug-in
32 68
0000000000000000000000000000000000011111000000001111110000000000001111
1100011111111111101111110001111111001111111111111111111110111111110111
0000111111100000000011111111011111111111111011111100111111110111100111
1111101110010011111111011110011111111111100110111111110111100111111111
1110011011111111011111111111111100111110111111110111111111111111111111
1001111111001111111111111011111100011111110000000011111110000000001111
1111011011111111111111110110111111110111111111111111111101100111111100
0111101111111001110000001111100001110011111110011110000001111100000000
1111111100011110001111110001111111111111111111100111111100111111111111
1011111100111111110111000011111100000000001111111101111111111111101111
1100111111110111110011111110111100001111111101111100111111111111001011
1111110111110011111111111100101111111101111111111111111001111011111111
0111111111111111111111100111111100111111111111101111110011111111011000
0011111100000000001111111101100111111111101110110001111111000111111111
1110111111000011111100011111111111101111110000111111000110001111110000
0000000001100000000000000000000000000000011111000000001111111100011110
0011111100011111111111111111111001111111001111111111111011111100111111
1101110000111111000000000011111111011111111111111011111100111111110111
0011111111101100110011111111011100111111111111001110111111110111001111
1111111100111011111111011111101111111101111110111111110111111111111111
1111111001111111001111111111111011111100011111110011000011111111000001
1001111111001111111111111111110110001111110000111111111110111100000001
1111000011111111100001110000000111110000111111110000111000000000111100
0000001110000000000000000000000000000000000000000000000000000000000000
0000000000000000000000000000000000000000000000000000000000000000000000
0000000000000000000000000000000000000000000000000000000000000000000000
0000000000000000000000000000000000000000000000000000000000000000000000
0000000000000000000000000000000000000000000000000000000000000000000000
0000000000000000000000000000000000000000000000000000000000000000000000
0000000000000000000000000000000000000000000000000000000000000000000000
0000000000000000000000000000000000000000000000000000000000000000000000
000000